<?xml version="1.0" encoding="UTF-8"?>
<svg width="14px" height="14px" viewBox="0 0 14 14" version="1.1" xmlns="http://www.w3.org/2000/svg" xmlns:xlink="http://www.w3.org/1999/xlink">
    <!-- Generator: Sketch 50.2 (55047) - http://www.bohemiancoding.com/sketch -->
    <title>Shape</title>
    <desc>Created with Sketch.</desc>
    <defs></defs>
    <g id="Miner-v2" stroke="none" stroke-width="1" fill="none" fill-rule="evenodd">
        <g id="Miner-v2-–-Stacked-line" transform="translate(-1152.000000, -182.000000)" fill="#90A2BC" fill-rule="nonzero">
            <g id="Data-cards" transform="translate(315.000000, 169.000000)">
                <g id="Unpaid-balance-card" transform="translate(663.000000, 0.000000)">
                    <path d="M181,13.9032258 C184.348173,13.9032258 187.096774,16.6150202 187.096774,20 C187.096774,23.3670847 184.369879,26.0967742 181,26.0967742 C177.634242,26.0967742 174.903226,23.3712339 174.903226,20 C174.903226,16.6353992 177.629895,13.9032258 181,13.9032258 Z M181,13 C177.134278,13 174,16.1354073 174,20 C174,23.8668508 177.134278,27 181,27 C184.865722,27 188,23.8668508 188,20 C188,16.1354073 184.865722,13 181,13 Z M179.983871,22.7096774 L180.322581,22.7096774 L180.322581,19.3225806 L179.983871,19.3225806 C179.796819,19.3225806 179.645161,19.1709234 179.645161,18.983871 L179.645161,18.7580645 C179.645161,18.5710121 179.796819,18.4193548 179.983871,18.4193548 L181.33871,18.4193548 C181.525762,18.4193548 181.677419,18.5710121 181.677419,18.7580645 L181.677419,22.7096774 L182.016129,22.7096774 C182.203181,22.7096774 182.354839,22.8613347 182.354839,23.0483871 L182.354839,23.2741935 C182.354839,23.461246 182.203181,23.6129032 182.016129,23.6129032 L179.983871,23.6129032 C179.796819,23.6129032 179.645161,23.461246 179.645161,23.2741935 L179.645161,23.0483871 C179.645161,22.8613347 179.796819,22.7096774 179.983871,22.7096774 Z M181,15.9354839 C180.501165,15.9354839 180.096774,16.339875 180.096774,16.8387097 C180.096774,17.3375444 180.501165,17.7419355 181,17.7419355 C181.498835,17.7419355 181.903226,17.3375444 181.903226,16.8387097 C181.903226,16.339875 181.498835,15.9354839 181,15.9354839 Z" id="Shape"></path>
                </g>
            </g>
        </g>
    </g>
</svg>