<?xml version="1.0" encoding="UTF-8"?>
<svg width="18px" height="18px" viewBox="0 0 18 18" version="1.1" xmlns="http://www.w3.org/2000/svg" xmlns:xlink="http://www.w3.org/1999/xlink">
    <!-- Generator: Sketch 52.3 (67297) - http://www.bohemiancoding.com/sketch -->
    <title>Stop icon</title>
    <desc>Created with Sketch.</desc>
    <g id="Miner-v3" stroke="none" stroke-width="1" fill="none" fill-rule="evenodd">
        <g id="Miner-v3-–-Stacked-bar" transform="translate(-1067.000000, -111.000000)" fill="#FFFFFF">
            <g id="Top-row" transform="translate(886.000000, 102.000000)">
                <g id="Stop-button" transform="translate(167.000000, 0.000000)">
                    <path d="M23,27 C18.0294373,27 14,22.9705627 14,18 C14,13.0294373 18.0294373,9 23,9 C27.9705627,9 32,13.0294373 32,18 C32,22.9705627 27.9705627,27 23,27 Z M20,14 C19.4477153,14 19,14.4477153 19,15 L19,21 C19,21.5522847 19.4477153,22 20,22 L26,22 C26.5522847,22 27,21.5522847 27,21 L27,15 C27,14.4477153 26.5522847,14 26,14 L20,14 Z" id="Stop-icon"></path>
                </g>
            </g>
        </g>
    </g>
</svg>