<?xml version="1.0" encoding="UTF-8"?>
<svg width="865px" height="302px" viewBox="0 0 865 302" version="1.1" xmlns="http://www.w3.org/2000/svg" xmlns:xlink="http://www.w3.org/1999/xlink">
    <!-- Generator: Sketch 50.2 (55047) - http://www.bohemiancoding.com/sketch -->
    <title>Graph</title>
    <desc>Created with Sketch.</desc>
    <defs>
        <linearGradient x1="50%" y1="0%" x2="50%" y2="100%" id="linearGradient-1">
            <stop stop-color="#0846A0" offset="4.06882225%"></stop>
            <stop stop-color="#FFFFFF" offset="100%"></stop>
        </linearGradient>
        <linearGradient x1="50%" y1="45.042332%" x2="50%" y2="98.9427399%" id="linearGradient-2">
            <stop stop-color="#0846A0" offset="0%"></stop>
            <stop stop-color="#0043A3" stop-opacity="0" offset="100%"></stop>
        </linearGradient>
    </defs>
    <g id="Miner-v2" stroke="none" stroke-width="1" fill="none" fill-rule="evenodd">
        <g transform="translate(-314.000000, -346.000000)" id="Graph">
            <g transform="translate(314.000000, 319.000000)">
                <g id="Bottom" transform="translate(31.000000, 311.000000)" font-family="OpenSans, Open Sans" font-size="14" font-weight="normal">
                    <text id="1-month" fill="#90A2BC">
                        <tspan x="748" y="14">1 month</tspan>
                    </text>
                    <text id="1-week" fill="#90A2BC">
                        <tspan x="678" y="14">1 week</tspan>
                    </text>
                    <text id="3-days" fill="#0846A0">
                        <tspan x="612" y="14">3 days</tspan>
                    </text>
                    <text id="24-hours" fill="#90A2BC">
                        <tspan x="530.15918" y="14">24 hours</tspan>
                    </text>
                    <text id="Average-hourly-hash" fill="#0846A0">
                        <tspan x="0.498535156" y="14">Average hourly hash rate</tspan>
                    </text>
                </g>
                <path d="M864.683594,138.553638 L864.683594,289.209509 L2.01279797,289.209509 L0.61328125,169.074443 L11.6854684,167.987847 C12.1426168,167.942984 12.6023131,167.929672 13.0612916,167.948006 L23.2623316,168.355496 C24.0028655,168.385077 24.7443929,168.332244 25.473252,168.197968 L34.6765223,166.502479 C35.8045273,166.29467 36.9598757,166.282471 38.0920172,166.466415 L46.9643648,167.907945 C47.9070688,168.06111 48.8668533,168.078437 49.8144715,167.959399 L58.7854396,166.832478 C59.8484275,166.698946 60.9259668,166.737099 61.9768486,166.945477 L70.9429483,168.723353 C71.9056397,168.914244 72.8911886,168.962376 73.8678997,168.866202 L83.7487965,167.893257 C84.1820838,167.850593 84.6176949,167.83627 85.052849,167.850382 L95.775163,168.198095 C96.1939672,168.211676 96.6132111,168.198921 97.030415,168.159904 L107.873831,167.145832 C108.23006,167.112518 108.58782,167.098345 108.945568,167.103376 L119.852528,167.256747 C120.225969,167.261999 120.598822,167.288166 120.969335,167.335128 L131.761319,168.702981 C132.198427,168.758383 132.638719,168.784836 133.079316,168.782166 L144.290814,168.714239 C144.378446,168.713708 144.466067,168.712025 144.553654,168.709191 L155.778446,168.345962 C156.210253,168.331989 156.6407,168.290048 157.067082,168.220402 L167.802245,166.466893 C168.22126,166.39845 168.644209,166.356762 169.068523,166.342081 L177.152788,166.062374 C179.285511,165.988584 181.338701,165.23447 183.012169,163.910289 L191.629753,157.091369 C192.168844,156.664798 192.750484,156.294952 193.365446,155.987701 L200.790293,152.278041 C203.132854,151.107633 205.841053,150.902814 208.332997,151.707593 L213.792659,153.470805 C215.530768,154.032132 217.389419,154.1067 219.166909,153.686419 L228.44122,151.493541 C228.449908,151.491487 228.458593,151.489421 228.467275,151.487344 L239.896194,148.752676 C240.270965,148.663002 240.64024,148.55174 241.002171,148.419447 L251.060222,144.74303 C251.990506,144.402993 252.966146,144.203053 253.955191,144.149757 L263.380163,143.641881 C264.103222,143.602918 264.81991,143.485535 265.517619,143.291797 L275.399652,140.547784 C276.1127,140.349787 276.845523,140.231552 277.584659,140.195252 L285.964456,139.783702 C287.613855,139.702696 289.217521,139.214476 290.632247,138.362637 L300.243388,132.575553 C300.40221,132.479922 300.558342,132.379893 300.711604,132.275582 L308.186721,127.187956 C310.881717,125.35372 314.301626,124.94827 317.350803,126.1015 L323.267346,128.339196 C324.079526,128.646371 324.928257,128.846454 325.79212,128.934396 L335.051511,129.877006 C336.009071,129.974486 336.947542,130.2097 337.837884,130.575371 L344.252256,133.209809 C346.948697,134.31726 349.994139,134.193018 352.59141,132.869604 L357.879858,130.174926 C359.593233,129.301892 361.52199,128.941385 363.435032,129.136598 L370.715086,129.87948 C371.901515,130.000548 373.100035,129.908414 374.254021,129.607431 L383.035306,127.317094 C384.015185,127.061522 384.95056,126.658594 385.809426,126.122098 L396.29627,119.571427 C396.444212,119.479014 396.589711,119.382746 396.732617,119.282721 L406.295409,112.589435 C407.753859,111.568622 409.458376,110.955646 411.232924,110.813812 L419.525559,110.151011 C420.191748,110.097764 420.861597,110.111435 421.525059,110.191819 L431.336217,111.38051 C432.130488,111.476742 432.91034,111.667946 433.659045,111.950022 L442.054207,115.112916 C443.680938,115.72579 445.439336,115.904022 447.15596,115.630031 L455.437023,114.30829 C456.170767,114.191177 456.915278,114.156208 457.656769,114.204029 L466.081686,114.74738 C467.70002,114.851751 469.319458,114.560974 470.800392,113.900115 L477.894434,110.734434 C479.629017,109.960385 481.548177,109.696364 483.42734,109.973266 L490.862189,111.068819 C491.982441,111.233892 493.122593,111.207499 494.234007,110.990764 L502.605566,109.358247 C503.895432,109.106713 505.222227,109.111887 506.510092,109.373471 L516.451156,111.392649 C516.526325,111.407916 516.601667,111.422319 516.677168,111.435853 L525.839944,113.078389 C527.625307,113.398437 529.464099,113.226869 531.159435,112.582055 L537.177528,110.293101 C539.371079,109.458793 541.788188,109.422559 544.005762,110.190741 L551.491276,112.783769 C552.213129,113.033823 552.90395,113.365771 553.550223,113.773115 L564.525808,120.691007 C564.563396,120.714698 564.600825,120.73864 564.638094,120.762831 L575.457499,127.785512 C576.206959,128.271972 577.018234,128.655795 577.869661,128.92673 L583.502097,130.719046 C586.682351,131.731044 590.157846,131.089815 592.767579,129.009564 L597.841502,124.965075 C599.62409,123.544152 601.838657,122.774926 604.11825,122.78486 L611.285844,122.816092 C612.158505,122.819894 613.026915,122.93791 613.868941,123.167132 L622.723299,125.577517 C623.966084,125.915836 625.262525,126.01088 626.541363,125.857427 L635.63966,124.765687 C636.284755,124.688279 636.920771,124.548186 637.538688,124.347395 L645.284525,121.830393 C647.440146,121.129926 649.769784,121.182541 651.891583,121.979612 L659.760509,124.935639 C660.331469,125.150124 660.881608,125.416396 661.40405,125.731124 L672.038381,132.137433 C672.427882,132.372075 672.800926,132.633012 673.154914,132.918425 L680.648457,138.960311 C683.147612,140.975327 686.462227,141.667985 689.559166,140.822391 L693.92633,139.629973 C695.696252,139.14671 697.565012,139.159688 699.328051,139.667485 L707.610052,142.052898 C708.292754,142.249532 708.994468,142.372853 709.703306,142.420771 L718.035009,142.984 C719.744049,143.099533 721.454117,142.774122 723.001277,142.038962 L732.545178,137.504014 C732.612497,137.472026 732.679456,137.439287 732.746044,137.405802 L741.973676,132.765465 C743.72002,131.887274 745.685452,131.540154 747.626963,131.767023 L753.889419,132.498802 C755.698914,132.710244 757.416268,133.411986 758.856037,134.528251 L766.684268,140.597543 C767.981377,141.603202 769.506078,142.274133 771.123827,142.551131 L779.463624,143.979105 C780.261217,144.115672 781.039285,144.348544 781.780759,144.672614 L788.774505,147.72931 C791.263114,148.816985 794.087084,148.845657 796.597264,147.808734 L802.730958,145.274985 C804.01204,144.745787 805.389147,144.48869 806.774875,144.520012 L816.549006,144.740937 C816.635095,144.742882 816.721154,144.74594 816.807163,144.750109 L825.99005,145.195202 C827.753678,145.280684 829.508496,144.897676 831.076116,144.085113 L840.215705,139.34768 C840.529869,139.184836 840.852455,139.038782 841.182101,138.910135 L849.2694,135.754 C851.478841,134.891748 853.922826,134.842854 856.164984,135.616049 L864.683594,138.553638 Z" id="Gradient" fill-opacity="0.08" fill="url(#linearGradient-1)"></path>
                <g id="Hover-column" transform="translate(371.000000, 25.000000)">
                    <path d="M41.5,77 L40.5,77 L40.5,37 L41.5,37 L41.5,77 Z M41.5,95 L41.5,264 L40.5,264 L40.5,95 L41.5,95 Z" id="Line" fill="url(#linearGradient-2)" opacity="0.159999996"></path>
                    <text id="Oct-13-2018,-3pm" font-family="OpenSans, Open Sans" font-size="10" font-weight="normal" fill="#0846A0">
                        <tspan x="0" y="10">Oct 13 2018, 3pm</tspan>
                    </text>
                    <text id="2.331-MH/s" font-family="OpenSans-Bold, Open Sans" font-size="14" font-weight="bold" fill="#0846A0">
                        <tspan x="3" y="30">2.331 MH/S</tspan>
                    </text>
                </g>
            </g>
        </g>
    </g>
</svg>