<?xml version="1.0" encoding="UTF-8"?>
<svg width="157px" height="48px" viewBox="0 0 157 48" version="1.1" xmlns="http://www.w3.org/2000/svg" xmlns:xlink="http://www.w3.org/1999/xlink">
    <!-- Generator: Sketch 49 (51002) - http://www.bohemiancoding.com/sketch -->
    <title>Group 7</title>
    <desc>Created with Sketch.</desc>
    <defs></defs>
    <g id="Page-1" stroke="none" stroke-width="1" fill="none" fill-rule="evenodd">
        <g id="Artboard" transform="translate(-15.000000, -22.000000)" fill="#0043A4">
            <g id="Group-7" transform="translate(15.000000, 22.000000)">
                <g id="Group-2" fill-rule="nonzero">
                    <g id="Group">
                        <g id="Group-54" transform="translate(13.780976, 15.936000)">
                            <path d="M12.4861396,4.59575128 L8.12712108,6.8492223 C7.76589603,7.03596392 7.33654707,7.03595604 6.97532887,6.84920117 L2.61670108,4.59572939 C2.0014955,4.27765946 1.76061946,3.52109018 2.07868938,2.9058846 C2.20385744,2.66378662 2.40449061,2.46905721 2.65021796,2.35117362 L7.00884424,0.260195475 C7.35172218,0.0957055131 7.7507202,0.095698514 8.09360391,0.260176446 L12.4526239,2.35115534 C13.0770627,2.6506925 13.3404476,3.39972305 13.0409105,4.0241619 C12.9230222,4.26992115 12.7282695,4.47057796 12.4861396,4.59575128 Z" id="Combined-Shape"></path>
                            <path d="M15.102439,7.02018511 L15.102439,11.3389522 C15.102439,11.7793622 14.8714049,12.1874908 14.4937939,12.4141421 L10.2056963,14.9879615 C9.61188535,15.3443811 8.84157127,15.1519374 8.48515164,14.5581265 C8.36814889,14.3631947 8.30634146,14.1401217 8.30634146,13.9127717 L8.30634146,9.50086922 C8.30634146,9.05324581 8.54494255,8.63956337 8.93240198,8.41541631 L13.2204995,5.9347322 C13.8199786,5.5879308 14.5870905,5.79276654 14.9338919,6.39224562 C15.0443026,6.58310092 15.102439,6.79969415 15.102439,7.02018511 Z" id="Path"></path>
                            <path d="M1.88896855,5.95481585 L6.17706611,8.47277196 C6.56055804,8.69795709 6.79609756,9.10940968 6.79609756,9.55412802 L6.79609756,13.9103192 C6.79609756,14.6028843 6.23466264,15.1643192 5.54209756,15.1643192 C5.31434372,15.1643192 5.09089002,15.1022922 4.89572328,14.9848965 L0.607625714,12.4055417 C0.230593021,12.1787509 -3.88961704e-15,11.7709505 -3.55271368e-15,11.3309644 L-3.33066907e-15,7.03617191 C-3.41548383e-15,6.34360684 0.561434924,5.78217191 1.254,5.78217191 C1.47725066,5.78217191 1.69645384,5.84177187 1.88896855,5.95481585 Z" id="Path"></path>
                        </g>
                        <path d="M40.7765854,30.528 C40.7765854,29.9978066 41.1991849,29.568 41.7204878,29.568 C42.2417907,29.568 42.6643902,29.9978066 42.6643902,30.528 L42.6643902,33.421148 C42.6643902,34.8929283 41.8979663,36.2546213 40.6501089,36.9998892 L33.7760571,41.1053343 C33.3265296,41.3738093 32.7481231,41.2208223 32.4841501,40.7636285 C32.220177,40.3064346 32.3705986,39.7181639 32.8201261,39.4496889 L39.694178,35.3442438 C40.3647348,34.9437618 40.7765854,34.2120335 40.7765854,33.421148 L40.7765854,30.528 Z M29.2870271,41.55979 C29.7365546,41.2913151 30.3149611,41.444302 30.5789341,41.9014959 C30.8429072,42.3586897 30.6924856,42.9469605 30.2429581,43.2154354 L23.3984767,47.30322 C22.1227985,48.0651035 20.5415917,48.0651035 19.2659136,47.30322 L12.4211332,43.2152569 C11.9716057,42.946782 11.8211841,42.3585112 12.0851572,41.9013173 C12.3491302,41.4441235 12.9275367,41.2911366 13.3770642,41.5596115 L20.2218445,45.6475746 C20.9073513,46.0569853 21.7570389,46.0569853 22.4425457,45.6475746 L29.2870271,41.55979 Z M9.90344866,39.4850362 C10.3529761,39.7535111 10.5033977,40.3417819 10.2394247,40.7989757 C9.97545166,41.2561696 9.39704519,41.4091565 8.94751769,41.1406816 L2.01428131,36.9998892 C0.766423903,36.2546213 2.17971982e-15,34.8929283 4.52711039e-15,33.421148 L0,27.4527819 C0,26.9225885 0.422599517,26.4927819 0.943902439,26.4927819 C1.46520536,26.4927819 1.88780488,26.9225885 1.88780488,27.4527819 L1.88780488,33.421148 C1.88780488,34.2120335 2.29965544,34.9437618 2.97021227,35.3442438 L9.90344866,39.4850362 Z M1.88780488,23.616 C1.88780488,24.1461934 1.46520536,24.576 0.943902439,24.576 C0.422599517,24.576 6.9377566e-15,24.1461934 7.10542736e-15,23.616 L9.78815944e-15,14.578852 C9.62048869e-15,13.1070717 0.766423903,11.7453787 2.01428131,11.0001108 L3.49003515,10.1187345 C3.93956265,9.85025958 4.51796912,10.0032465 4.78194216,10.4604404 C5.04591521,10.9176342 4.89549361,11.505905 4.44596611,11.7743799 L2.97021227,12.6557562 C2.29965544,13.0562382 1.88780488,13.7879665 1.88780488,14.578852 L1.88780488,23.616 Z M7.95268679,9.68003298 C7.50315929,9.94850789 6.92475282,9.79552096 6.66077978,9.3383271 C6.39680673,8.88113325 6.54722833,8.29286248 6.99675583,8.02438757 L14.8196109,3.35228107 C15.2691384,3.08380615 15.8475449,3.23679308 16.1115179,3.69398694 C16.375491,4.15118079 16.2250694,4.73945156 15.7755419,5.00792647 L7.95268679,9.68003298 Z M18.7205655,3.24904639 C18.271038,3.5175213 17.6926315,3.36453437 17.4286585,2.90734052 C17.1646854,2.45014666 17.315107,1.8618759 17.7646345,1.59340098 L19.2659136,0.696780042 C20.5415917,-0.065103456 22.1227985,-0.065103456 23.3984767,0.696780042 L24.7112413,1.48081298 C25.1607688,1.7492879 25.3111904,2.33755866 25.0472173,2.79475252 C24.7832443,3.25194637 24.2048378,3.4049333 23.7553103,3.13645839 L22.4425457,2.35242545 C21.7570389,1.94301474 20.9073513,1.94301474 20.2218445,2.35242545 L18.7205655,3.24904639 Z M26.9057307,5.01800921 C26.4562032,4.7495343 26.3057816,4.16126353 26.5697546,3.70406968 C26.8337277,3.24687582 27.4121341,3.09388889 27.8616616,3.3623638 L35.6820804,8.03301527 C36.1316079,8.30149018 36.2820295,8.88976095 36.0180565,9.3469548 C35.7540834,9.80414866 35.1756769,9.95713559 34.7261495,9.68866068 L26.9057307,5.01800921 Z M38.2367891,11.7853481 C37.7872616,11.5168732 37.63684,10.9286025 37.900813,10.4714086 C38.1647861,10.0142148 38.7431925,9.86122782 39.19272,10.1297027 L40.6501089,11.0001108 C41.8979663,11.7453787 42.6643902,13.1070717 42.6643902,14.578852 L42.6643902,17.472 C42.6643902,18.0021934 42.2417907,18.432 41.7204878,18.432 C41.1991849,18.432 40.7765854,18.0021934 40.7765854,17.472 L40.7765854,14.578852 C40.7765854,13.7879665 40.3647348,13.0562382 39.694178,12.6557562 L38.2367891,11.7853481 Z M40.7765854,21.312 C40.7765854,20.7818066 41.1991849,20.352 41.7204878,20.352 C42.2417907,20.352 42.6643902,20.7818066 42.6643902,21.312 L42.6643902,26.688 C42.6643902,27.2181934 42.2417907,27.648 41.7204878,27.648 C41.1991849,27.648 40.7765854,27.2181934 40.7765854,26.688 L40.7765854,21.312 Z" id="Rectangle-56-Copy-17"></path>
                        <path d="M36.2458537,28.2282668 C36.2458537,27.6980734 36.6684532,27.2682668 37.1897561,27.2682668 C37.711059,27.2682668 38.1336585,27.6980734 38.1336585,28.2282668 L38.1336585,31.1423574 C38.1336585,32.3618401 37.4990733,33.4902458 36.4655683,34.1085195 L28.6081057,38.8090888 C28.1587697,39.077895 27.5802544,38.9253346 27.3159555,38.4683354 C27.0516567,38.0113363 27.201659,37.4229548 27.650995,37.1541485 L35.5084575,32.4535793 C35.9653289,32.1802652 36.2458537,31.6814421 36.2458537,31.1423574 L36.2458537,28.2282668 Z M24.1875322,39.2260956 C24.6368682,38.9572894 25.2153836,39.1098498 25.4796824,39.566849 C25.7439813,40.0238481 25.593979,40.6122296 25.144643,40.8810359 L23.0476321,42.1355305 C21.9888002,42.7689555 20.6755901,42.7689555 19.6167582,42.1355305 L16.3568873,40.1853782 C15.9075513,39.916572 15.757549,39.3281905 16.0218479,38.8711913 C16.2861467,38.4141922 16.8646621,38.2616318 17.3139981,38.530438 L20.5738689,40.4805903 C21.0419362,40.7606022 21.622454,40.7606022 22.0905213,40.4805903 L24.1875322,39.2260956 Z M13.8036655,36.430452 C14.2530016,36.6992583 14.4030038,37.2876398 14.138705,37.7446389 C13.8744062,38.201638 13.2958908,38.3541985 12.8465548,38.0853922 L6.51535218,34.2978773 C6.06601616,34.0290711 5.91601388,33.4406896 6.18031272,32.9836905 C6.44461155,32.5266913 7.02312691,32.3741309 7.47246293,32.6429371 L13.8036655,36.430452 Z M6.41853659,30.527491 C6.41853659,31.0576844 5.99593707,31.487491 5.47463415,31.487491 C4.95333122,31.487491 4.53073171,31.0576844 4.53073171,30.527491 L4.53073171,22.8580007 C4.53073171,22.3278073 4.95333122,21.8980007 5.47463415,21.8980007 C5.99593707,21.8980007 6.41853659,22.3278073 6.41853659,22.8580007 L6.41853659,30.527491 Z M6.41853659,19.008 C6.41853659,19.5381934 5.99593707,19.968 5.47463415,19.968 C4.95333122,19.968 4.53073171,19.5381934 4.53073171,19.008 L4.53073171,16.8576426 C4.53073171,15.6381599 5.16531691,14.5097542 6.19882195,13.8914805 L14.2487957,9.0757453 C14.6981317,8.80693904 15.2766471,8.95949949 15.5409459,9.41649861 C15.8052447,9.87349773 15.6552425,10.4618792 15.2059064,10.7306855 L7.1559327,15.5464207 C6.69906137,15.8197348 6.41853659,16.3185579 6.41853659,16.8576426 L6.41853659,19.008 Z M18.611438,8.6933946 C18.162102,8.96220086 17.5835866,8.8096404 17.3192878,8.35264128 C17.0549889,7.89564216 17.2049912,7.30726065 17.6543272,7.03845439 L19.6167582,5.86446948 C20.6755901,5.23104454 21.9888002,5.23104454 23.0476321,5.86446948 L30.388212,10.2558241 C30.837548,10.5246303 30.9875503,11.1130118 30.7232514,11.5700109 C30.4589526,12.0270101 29.8804372,12.1795705 29.4311012,11.9107643 L22.0905213,7.51940969 C21.622454,7.2393978 21.0419362,7.2393978 20.5738689,7.51940969 L18.611438,8.6933946 Z M32.9249495,14.0008889 C32.4756134,13.7320826 32.3256112,13.1437011 32.58991,12.686702 C32.8542088,12.2297029 33.4327242,12.0771424 33.8820602,12.3459487 L36.4655683,13.8914805 C37.4990733,14.5097542 38.1336585,15.6381599 38.1336585,16.8576426 L38.1336585,24.384 C38.1336585,24.9141934 37.711059,25.344 37.1897561,25.344 C36.6684532,25.344 36.2458537,24.9141934 36.2458537,24.384 L36.2458537,16.8576426 C36.2458537,16.3185579 35.9653289,15.8197348 35.5084575,15.5464207 L32.9249495,14.0008889 Z" id="Rectangle-56-Copy-16"></path>
                        <path d="M31.715122,25.152 C31.715122,24.6218066 32.1377215,24.192 32.6590244,24.192 C33.1803273,24.192 33.6029268,24.6218066 33.6029268,25.152 L33.6029268,29.1392641 C33.6029268,30.1056725 33.10098,31.0001921 32.2828698,31.491738 L29.3503077,33.253712 C28.9014741,33.5233852 28.3226751,33.3719417 28.0575239,32.9154535 C27.7923728,32.4589654 27.9412768,31.8702954 28.3901104,31.6006223 L31.3226726,29.8386483 C31.5658945,29.692513 31.715122,29.4265747 31.715122,29.1392641 L31.715122,25.152 Z M25.1113469,33.5706048 C25.5601805,33.3009317 26.1389795,33.4523752 26.4041307,33.9088633 C26.6692818,34.3653515 26.5203778,34.9540215 26.0715442,35.2236946 L22.6986297,37.2502459 C21.8557219,37.756691 20.8086684,37.756691 19.9657606,37.2502459 C17.8665902,35.9889994 17.8665902,35.9889994 16.5269745,35.1841048 L14.6547134,34.0471948 C14.2071197,33.7753985 14.0609131,33.1860295 14.328152,32.7308024 C14.5953908,32.2755752 15.1748771,32.1268752 15.6224708,32.3986716 L17.4909518,33.5332983 L20.9259578,35.5971562 C21.176552,35.7477209 21.4878382,35.7477209 21.7384324,35.5971562 L25.1113469,33.5706048 Z M12.3962894,30.4722676 C12.845123,30.7419407 12.9940271,31.3306107 12.7288759,31.7870988 C12.4637248,32.2435869 11.8849258,32.3950304 11.4360922,32.1253573 L10.3815204,31.491738 C9.56341028,31.0001921 9.06146341,30.1056725 9.06146341,29.1392641 L9.06146341,25.9066749 C9.06146341,25.3764816 9.48406293,24.9466749 10.0053659,24.9466749 C10.5266688,24.9466749 10.9492683,25.3764816 10.9492683,25.9066749 L10.9492683,29.1392641 C10.9492683,29.4265747 11.0984957,29.692513 11.3417177,29.8386483 L12.3962894,30.4722676 Z M10.9492683,22.08 C10.9492683,22.6101934 10.5266688,23.04 10.0053659,23.04 C9.48406293,23.04 9.06146341,22.6101934 9.06146341,22.08 L9.06146341,18.8607359 C9.06146341,17.8943275 9.56341028,16.9998079 10.3815204,16.508262 L11.4704173,15.854019 C11.919251,15.5843459 12.49805,15.7357894 12.7632011,16.1922775 C13.0283523,16.6487657 12.8794482,17.2374357 12.4306146,17.5071088 L11.3417177,18.1613517 C11.0984957,18.307487 10.9492683,18.5734253 10.9492683,18.8607359 L10.9492683,22.08 Z M15.9584847,15.3874553 C15.509651,15.6571285 14.930852,15.505685 14.6657009,15.0491968 C14.4005497,14.5927087 14.5494538,14.0040387 14.9982874,13.7343656 L19.9657606,10.7497541 C20.8086684,10.243309 21.8557219,10.243309 22.6986297,10.7497541 L24.5505383,11.862438 C24.9993719,12.1321112 25.1482759,12.7207811 24.8831248,13.1772693 C24.6179736,13.6337574 24.0391746,13.7852009 23.590341,13.5155278 L21.7384324,12.4028438 C21.4878382,12.2522791 21.176552,12.2522791 20.9259578,12.4028438 L15.9584847,15.3874553 Z M27.1684585,15.6653714 C26.7196249,15.3956983 26.5707208,14.8070283 26.835872,14.3505402 C27.1010231,13.8940521 27.6798221,13.7426086 28.1286557,14.0122817 L32.2828698,16.508262 C33.10098,16.9998079 33.6029268,17.8943275 33.6029268,18.8607359 L33.6029268,21.312 C33.6029268,21.8421934 33.1803273,22.272 32.6590244,22.272 C32.1377215,22.272 31.715122,21.8421934 31.715122,21.312 L31.715122,18.8607359 C31.715122,18.5734253 31.5658945,18.307487 31.3226726,18.1613517 L27.1684585,15.6653714 Z" id="Rectangle-56-Copy-13"></path>
                    </g>
                </g>
                <text id="SENTIENT" font-family="Open Sans" font-size="22" font-weight="400">
                    <tspan x="53" y="32">SENTIENT</tspan>
                </text>
            </g>
        </g>
    </g>
</svg>
