<svg width="142" height="36" viewBox="0 0 142 36" fill="none" xmlns="http://www.w3.org/2000/svg">
<path d="M44.9461 13.4957C43.9333 13.4957 43.2936 13.8689 43.2936 14.5619C43.2936 17.014 50.2767 15.628 50.2234 20.4789C50.2234 23.091 47.9846 24.5302 45.106 24.5302C42.9737 24.5302 40.8415 23.6773 39.3489 22.398L40.5216 19.9459C41.8543 21.1719 43.7733 21.9715 45.1593 21.9715C46.3854 21.9715 47.0783 21.4917 47.0783 20.6921C47.0783 18.1867 40.0952 19.626 40.0952 14.8817C40.1485 12.4296 42.1741 10.8837 45.2126 10.8837C47.025 10.8837 48.8908 11.4701 50.1701 12.323L49.0507 14.8284C47.6114 14.0288 46.0122 13.4957 44.9461 13.4957Z" fill="#4A4A4A"/>
<path d="M63.6034 11.2036V13.6557H56.5669V16.4809H62.8571V18.933H56.5669V21.8116H63.7633V24.2637H53.635V11.2036H63.6034Z" fill="#4A4A4A"/>
<path d="M70.1067 11.2036L76.4502 19.5727V11.2036H79.2222V24.2637H76.5569L70.2667 15.8945V24.2637H67.4414V11.2036H70.1067Z" fill="#4A4A4A"/>
<path d="M92.2448 11.2034V13.7088H88.2468V24.2635H85.3149V13.7088H81.3169V11.2034H92.2448Z" fill="#4A4A4A"/>
<path d="M98.1621 11.2034V24.2635H95.2302V11.2034H98.1621Z" fill="#4A4A4A"/>
<path d="M112.288 11.2034V13.6555H105.305V16.4808H111.595V18.9329H105.305V21.8114H112.501V24.2635H102.373V11.2034H112.288Z" fill="#4A4A4A"/>
<path d="M118.845 11.2034L125.189 19.5725V11.2034H127.96V24.2635H125.295L119.005 15.8944V24.2635H116.18V11.2034H118.845Z" fill="#4A4A4A"/>
<path d="M141.82 11.2034V13.7088H137.822V24.2635H134.89V13.7088H130.892V11.2034H141.82Z" fill="#4A4A4A"/>
<path d="M30.6284 23.7919L23.5584 19.7113V16.2887L30.6284 12.2081C31.3546 11.7877 31.8004 11.0149 31.8004 10.1741C31.8004 9.33333 31.3546 8.56051 30.6284 8.14013L17.0743 0.314225C16.7134 0.106157 16.3057 0 15.9023 0C15.4989 0 15.0913 0.106157 14.7304 0.314225L1.17197 8.14013C0.44586 8.56051 0 9.33333 0 10.1741C0 11.0149 0.44586 11.7877 1.17197 12.2081L8.24204 16.2887V19.7113L1.17197 23.7919C0.44586 24.2123 0 24.9851 0 25.8259C0 26.6667 0.44586 27.4395 1.17197 27.8599L14.7261 35.6858C15.0913 35.8938 15.4947 36 15.8981 36C16.3015 36 16.7091 35.8938 17.0701 35.6858L30.6284 27.8556C31.3546 27.4352 31.8004 26.6624 31.8004 25.8217C31.8047 24.9851 31.3546 24.2123 30.6284 23.7919ZM12.9384 19.7113V16.2887L15.2866 14.9342L15.9023 14.5775L16.518 14.9342L18.8662 16.2887V19.7113L15.9023 21.4225L12.9384 19.7113ZM15.9023 5.05732L24.7601 10.1699L21.2102 12.2166L17.0743 9.83015C16.3482 9.40977 15.4522 9.40977 14.7261 9.83015L10.5902 12.2166L7.04034 10.1699L15.9023 5.05732ZM15.9023 30.9384L7.04459 25.8259L10.5945 23.7792L14.7304 26.1656C15.0955 26.3737 15.4989 26.4798 15.9023 26.4798C16.3057 26.4798 16.7134 26.3737 17.0743 26.1656L21.2102 23.7792L24.7601 25.8259L15.9023 30.9384Z" fill="#072CBA"/>
</svg>
