<?xml version="1.0" encoding="UTF-8"?>
<svg width="159px" height="33px" viewBox="0 0 159 33" version="1.1" xmlns="http://www.w3.org/2000/svg" xmlns:xlink="http://www.w3.org/1999/xlink">
    <!-- Generator: Sketch 49 (51002) - http://www.bohemiancoding.com/sketch -->
    <title>Group 5</title>
    <desc>Created with Sketch.</desc>
    <defs></defs>
    <g id="Page-1" stroke="none" stroke-width="1" fill="none" fill-rule="evenodd">
        <g id="Artboard-Copy-5" transform="translate(-58.000000, -37.000000)" fill="#0043A4">
            <g id="Group-5" transform="translate(58.000000, 37.000000)">
                <path d="M13.5906011,0.0158284387 C13.6691272,-0.029144816 13.7678015,0.0270717524 13.7678015,0.117018262 L13.7678015,8.23366862 C13.7678015,8.27506446 13.7450703,8.31390499 13.7089069,8.33485844 L8.12528531,11.523871 C8.08860534,11.5443134 8.04365946,11.5443134 8.00697949,11.523871 L0.901397387,7.46554587 C0.82287125,7.42057262 0.82287125,7.30813948 0.901397387,7.26316622 L13.5906011,0.0158284387 Z M0.177200426,23.4033008 C0.0986742898,23.448274 0,23.3920574 0,23.3021109 L0,8.80794642 C0,8.71799991 0.0986742898,8.66127228 0.177200426,8.7067566 L7.28226591,12.7645707 C7.31894588,12.7855242 7.34116051,12.8243647 7.34116051,12.8657605 L7.34116051,19.2437858 C7.34116051,19.2856926 7.31894588,19.3240221 7.28226591,19.3449756 L0.177200426,23.4033008 Z M15.2165571,0.117069368 C15.2165571,0.0271228583 15.3152314,-0.0290937101 15.3937575,0.0158795447 L28.0824446,7.26321733 C28.1614873,7.30819059 28.1614873,7.42062372 28.0824446,7.46559698 L20.9768625,11.5234111 C20.9406991,11.5443645 20.8957532,11.5443645 20.8590733,11.5234111 L15.2754517,8.33490955 C15.2392883,8.3139561 15.2165571,8.27511556 15.2165571,8.23371973 L15.2165571,0.117069368 Z M0.901552372,24.8467378 C0.823026236,24.8017646 0.823026236,24.6893314 0.901552372,24.6443582 L8.00661786,20.586544 C8.04329783,20.5655906 8.08824371,20.5655906 8.12492368,20.586544 L13.7090619,23.7755566 C13.7452252,23.7965101 13.7679565,23.8348396 13.7679565,23.8767465 L13.7679565,31.9928858 C13.7679565,32.0828323 13.6692822,32.1390488 13.5907561,32.0940756 L0.901552372,24.8467378 Z M15.2165571,23.876542 C15.2165571,23.8346352 15.2392883,23.7963057 15.2754517,23.7753522 L20.8590733,20.5863396 C20.8957532,20.5653862 20.9406991,20.5653862 20.9768625,20.5863396 L28.0824446,24.6441537 C28.1614873,24.689127 28.1614873,24.8015601 28.0824446,24.8465334 L15.3937575,32.0938712 C15.3152314,32.1388444 15.2165571,32.0826279 15.2165571,31.9926813 L15.2165571,23.876542 Z M14.5023309,15.2217969 C14.4692672,15.2407061 14.4279377,15.2407061 14.394874,15.2212859 L9.66522418,12.4809837 C9.59444733,12.4400989 9.59496395,12.3389091 9.66625742,12.2980243 L14.4382701,9.57254285 C14.4713337,9.55363365 14.5121466,9.55363365 14.5452103,9.57254285 L19.3094736,12.2929137 C19.3807671,12.3337985 19.3807671,12.4354994 19.3094736,12.4763841 L14.5023309,15.2217969 Z M20.1938226,19.2503273 C20.1938226,19.2881457 20.1736744,19.3228978 20.1406108,19.341807 L15.376864,22.0626889 C15.3055706,22.1030626 15.216712,22.0524677 15.216712,21.9712092 L15.216712,16.5294454 C15.216712,16.492138 15.2368602,16.4568749 15.2699238,16.4379657 L20.0336706,13.7175949 C20.104964,13.6767101 20.1938226,13.7278161 20.1938226,13.8090746 L20.1938226,19.2503273 Z M13.7678015,21.9711581 C13.7678015,22.0524166 13.678943,22.1035226 13.6076495,22.0626378 L8.84338617,19.342267 C8.81032253,19.3233577 8.79017438,19.2880946 8.79017438,19.2502762 L8.79017438,13.8090234 C8.79017438,13.7272539 8.8790329,13.676659 8.95032637,13.7175438 L13.7145897,16.4384257 C13.7476534,16.4573349 13.7678015,16.4920869 13.7678015,16.5299054 L13.7678015,21.9711581 Z M21.5551145,12.865965 C21.5551145,12.8240581 21.5778457,12.7857286 21.6140091,12.7647751 L28.7195912,8.70644996 C28.7986339,8.6614767 28.8967916,8.71769327 28.8967916,8.80763978 L28.8967916,23.3018043 C28.8967916,23.3922619 28.7986339,23.4484784 28.7195912,23.4035052 L21.6140091,19.34518 C21.5778457,19.3242266 21.5551145,19.285386 21.5551145,19.2439902 L21.5551145,12.865965 Z" id="Combined-Shape"></path>
                <path d="M149.387226,12.0607979 C149.387226,11.551579 149.356228,8.8471077 153.117217,8.8471077 C156.878206,8.8471077 156.752667,12.5060366 156.752667,13.3335828 C156.752667,13.3650484 156.784181,13.3970385 156.815695,13.3970385 L158.038016,13.3970385 C158.069013,13.3970385 158.100527,13.3650484 158.100527,13.3335828 C158.100527,8.783652 155.279786,7.54285714 153.117217,7.54285714 C150.954649,7.54285714 148.039882,8.46532467 148.039882,12.0607979 C148.039882,15.1470522 150.421498,16.2604112 153.399291,17.2783245 C154.715637,17.7240877 156.784181,18.6145651 156.784181,20.9052633 C156.784181,21.7328095 156.596132,24.4372808 152.835143,24.4372808 C149.074154,24.4372808 148.917102,20.778352 148.917102,19.9508058 C148.917102,19.9193401 148.886105,19.8873501 148.854591,19.8873501 L147.63227,19.8873501 C147.600756,19.8873501 147.569759,19.9193401 147.569759,19.9508058 C147.569759,24.5007365 150.672575,25.7415314 152.835143,25.7415314 C154.997711,25.7415314 158.132041,24.8190639 158.132041,20.9052633 C158.132041,18.392208 156.784181,17.087433 153.743876,15.974074 C150.797596,14.8921806 149.387226,14.1925946 149.387226,12.0607979 L149.387226,12.0607979 Z M143.26105,7.79720436 C143.230053,7.79720436 143.198539,7.82919442 143.198539,7.86118448 L143.198539,19.9508058 C143.198539,20.778352 143.042004,24.4372808 139.280498,24.4372808 C135.51951,24.4372808 135.362974,20.778352 135.362974,19.9508058 L135.362974,7.86118448 C135.362974,7.82919442 135.33146,7.79720436 135.300463,7.79720436 L134.078142,7.79720436 C134.046628,7.79720436 134.015114,7.82919442 134.015114,7.86118448 L134.015114,19.9508058 C134.015114,24.5007365 137.11793,25.7415314 139.280498,25.7415314 C141.443584,25.7415314 144.546399,24.5007365 144.546399,19.9508058 L144.546399,7.86118448 C144.546399,7.82919442 144.514885,7.79720436 144.483372,7.79720436 L143.26105,7.79720436 Z M122.145623,12.0607979 C122.145623,11.551579 122.114626,8.8471077 125.875614,8.8471077 C129.636603,8.8471077 129.511064,12.5060366 129.511064,13.3335828 C129.511064,13.3650484 129.542578,13.3970385 129.573575,13.3970385 L130.796413,13.3970385 C130.82741,13.3970385 130.858924,13.3650484 130.858924,13.3335828 C130.858924,8.783652 128.038183,7.54285714 125.875614,7.54285714 C123.713046,7.54285714 120.79828,8.46532467 120.79828,12.0607979 C120.79828,15.1470522 123.179895,16.2604112 126.157688,17.2783245 C127.474034,17.7240877 129.542578,18.6145651 129.542578,20.9052633 C129.542578,21.7328095 129.354529,24.4372808 125.59354,24.4372808 C121.832551,24.4372808 121.675499,20.778352 121.675499,19.9508058 C121.675499,19.9193401 121.644502,19.8873501 121.612988,19.8873501 L120.390667,19.8873501 C120.359153,19.8873501 120.328156,19.9193401 120.328156,19.9508058 C120.328156,24.5007365 123.430972,25.7415314 125.59354,25.7415314 C127.756109,25.7415314 130.889921,24.8190639 130.889921,20.9052633 C130.889921,18.392208 129.542578,17.087433 126.502273,15.974074 C123.555993,14.8921806 122.145623,14.1925946 122.145623,12.0607979 L122.145623,12.0607979 Z M116.020775,7.79720436 C115.989778,7.79720436 115.958264,7.82919442 115.958264,7.86118448 L115.958264,22.9101487 L107.903136,7.86118448 C107.872139,7.79720436 107.809111,7.79720436 107.7466,7.79720436 L106.618304,7.79720436 C106.58679,7.79720436 106.555793,7.82919442 106.555793,7.86118448 L106.555793,25.5186498 C106.555793,25.5506399 106.58679,25.5826299 106.618304,25.5826299 L107.840625,25.5826299 C107.872139,25.5826299 107.903136,25.5506399 107.903136,25.5186498 L107.903136,10.4696856 L115.92675,25.4871842 C115.958264,25.5506399 116.020775,25.5826299 116.083803,25.5826299 L117.243096,25.5826299 C117.27461,25.5826299 117.306124,25.5506399 117.306124,25.5186498 L117.306124,7.86118448 C117.306124,7.82919442 117.27461,7.79720436 117.243096,7.79720436 L116.020775,7.79720436 Z M93.9341033,7.79720436 C93.9025895,7.79720436 93.8710757,7.82919442 93.8710757,7.86118448 L93.8710757,25.5186498 C93.8710757,25.5506399 93.9025895,25.5826299 93.9341033,25.5826299 L102.866451,25.5826299 C102.897965,25.5826299 102.928962,25.5506399 102.928962,25.5186498 L102.928962,24.3418351 C102.928962,24.309845 102.897965,24.277855 102.866451,24.277855 L95.2189355,24.277855 L95.2189355,17.0239773 L102.051743,17.0239773 C102.08274,17.0239773 102.114254,16.9919872 102.114254,16.9605216 L102.114254,15.7831824 C102.114254,15.7511924 102.08274,15.7197267 102.051743,15.7197267 L95.2189355,15.7197267 L95.2189355,9.10197934 L102.866451,9.10197934 C102.897965,9.10197934 102.928962,9.06998928 102.928962,9.03799922 L102.928962,7.86118448 C102.928962,7.82919442 102.897965,7.79720436 102.866451,7.79720436 L93.9341033,7.79720436 Z M81.5944881,12.0607979 C81.5944881,11.551579 81.5629743,8.8471077 85.3239629,8.8471077 C89.0849516,8.8471077 88.9599297,12.5060366 88.9599297,13.3335828 C88.9599297,13.3650484 88.9909268,13.3970385 89.0224406,13.3970385 L90.2447619,13.3970385 C90.2762757,13.3970385 90.3072729,13.3650484 90.3072729,13.3335828 C90.3072729,8.783652 87.4865314,7.54285714 85.3239629,7.54285714 C83.1613945,7.54285714 80.2466283,8.46532467 80.2466283,12.0607979 C80.2466283,15.1470522 82.6287599,16.2604112 85.6060371,17.2783245 C86.9223831,17.7240877 88.9909268,18.6145651 88.9909268,20.9052633 C88.9909268,21.7328095 88.8028774,24.4372808 85.0418888,24.4372808 C81.2809001,24.4372808 81.1243645,20.778352 81.1243645,19.9508058 C81.1243645,19.9193401 81.0928507,19.8873501 81.0613369,19.8873501 L79.8390156,19.8873501 C79.8080185,19.8873501 79.7765047,19.9193401 79.7765047,19.9508058 C79.7765047,24.5007365 82.8793203,25.7415314 85.0418888,25.7415314 C87.2044572,25.7415314 90.3387866,24.8190639 90.3387866,20.9052633 C90.3387866,18.392208 88.9909268,17.087433 85.9506222,15.974074 C83.0048588,14.8921806 81.5944881,14.1925946 81.5944881,12.0607979 L81.5944881,12.0607979 Z M75.5321514,7.79720436 C75.5006376,7.79720436 75.4696405,7.82919442 75.4696405,7.86118448 L75.4696405,22.9101487 L67.4145121,7.86118448 C67.3835149,7.79720436 67.3204873,7.79720436 67.2579764,7.79720436 L66.1296798,7.79720436 C66.098166,7.79720436 66.0666523,7.82919442 66.0666523,7.86118448 L66.0666523,25.5186498 C66.0666523,25.5506399 66.098166,25.5826299 66.1296798,25.5826299 L67.3520011,25.5826299 C67.3835149,25.5826299 67.4145121,25.5506399 67.4145121,25.5186498 L67.4145121,10.4696856 L75.4381267,25.4871842 C75.4696405,25.5506399 75.5321514,25.5826299 75.5946623,25.5826299 L76.7544727,25.5826299 C76.7859865,25.5826299 76.8169836,25.5506399 76.8169836,25.5186498 L76.8169836,7.86118448 C76.8169836,7.82919442 76.7859865,7.79720436 76.7544727,7.79720436 L75.5321514,7.79720436 Z M51.511094,16.6421943 C51.511094,20.3645789 52.1377532,25.7415314 57.1840907,25.7415314 C62.2299116,25.7415314 62.8570875,20.3645789 62.8570875,16.6421943 C62.8570875,12.9198097 62.2299116,7.54285714 57.1840907,7.54285714 C52.1377532,7.54285714 51.511094,12.9198097 51.511094,16.6421943 L51.511094,16.6421943 Z M61.5092277,16.6421943 C61.5092277,20.1416973 60.8825684,24.4372808 57.1840907,24.4372808 C53.485613,24.4372808 52.8589538,20.1416973 52.8589538,16.6421943 C52.8589538,13.1426913 53.485613,8.8471077 57.1840907,8.8471077 C60.8825684,8.8471077 61.5092277,13.1426913 61.5092277,16.6421943 L61.5092277,16.6421943 Z M47.2982545,20.1416973 C47.2982545,22.5918214 46.1384441,24.4372808 43.5057521,24.4372808 C40.214887,24.4372808 39.4311755,20.237143 39.4311755,16.73764 C39.4311755,9.70611953 41.4687221,8.8471077 43.5057521,8.8471077 C47.2667407,8.8471077 47.2982545,13.1741569 47.2982545,13.3335828 C47.2982545,13.3650484 47.3292517,13.3970385 47.3607654,13.3970385 L48.5830867,13.3970385 C48.6146005,13.3970385 48.6461143,13.3650484 48.6461143,13.3335828 C48.6461143,10.2787941 46.9531528,7.54285714 43.5057521,7.54285714 C38.7104916,7.54285714 38.0838323,12.6334724 38.0838323,16.73764 C38.0838323,20.4600246 38.8360301,25.7415314 43.5057521,25.7415314 C46.5770539,25.7415314 48.6461143,23.6417247 48.6461143,20.1416973 C48.6461143,20.1102316 48.6146005,20.0782416 48.5830867,20.0782416 L47.3607654,20.0782416 C47.3292517,20.0782416 47.2982545,20.1102316 47.2982545,20.1416973 L47.2982545,20.1416973 Z" id="Fill-10"></path>
            </g>
        </g>
    </g>
</svg>