<?xml version="1.0" encoding="UTF-8"?>
<svg width="85px" height="82px" viewBox="0 0 85 82" version="1.1" xmlns="http://www.w3.org/2000/svg" xmlns:xlink="http://www.w3.org/1999/xlink">
    <!-- Generator: Sketch 50.2 (55047) - http://www.bohemiancoding.com/sketch -->
    <title>Group 8</title>
    <desc>Created with Sketch.</desc>
    <defs></defs>
    <g id="Wallet" stroke="none" stroke-width="1" fill="none" fill-rule="evenodd">
        <g id="Artboard-Copy-37" transform="translate(-705.000000, -240.000000)" fill="#0043A4">
            <g id="Group-8" transform="translate(705.000000, 240.000000)">
                <path d="M68.0503107,57.8932628 L74.0503107,61.4750468 C75.2594824,62.1968788 76,63.501371 76,64.9096102 L76,71.312612 C76,72.7208512 75.2594824,74.0253435 74.0503107,74.7471754 L68.0503107,78.3289594 C66.7873947,79.0828749 65.2126053,79.0828749 63.9496893,78.3289594 L57.9496893,74.7471754 C56.7405176,74.0253435 56,72.7208512 56,71.312612 L56,64.9096102 C56,63.501371 56.7405176,62.1968788 57.9496893,61.4750468 L63.9496893,57.8932628 C65.2126053,57.1393474 66.7873947,57.1393474 68.0503107,57.8932628 Z" id="Polygon"></path>
                <path d="M78.5503107,33.9428676 L83.0503107,36.6292056 C84.2594824,37.3510376 85,38.6555299 85,40.0637691 L85,44.8251198 C85,46.233359 84.2594824,47.5378513 83.0503107,48.2596833 L78.5503107,50.9460213 C77.2873947,51.6999367 75.7126053,51.6999367 74.4496893,50.9460213 L69.9496893,48.2596833 C68.7405176,47.5378513 68,46.233359 68,44.8251198 L68,40.0637691 C68,38.6555299 68.7405176,37.3510376 69.9496893,36.6292056 L74.4496893,33.9428676 C75.7126053,33.1889522 77.2873947,33.1889522 78.5503107,33.9428676 Z" id="Polygon-Copy"></path>
                <path d="M68.5503107,9.97593751 L72.0503107,12.0653115 C73.2594824,12.7871435 74,14.0916357 74,15.4998749 L74,19.1667917 C74,20.5750309 73.2594824,21.8795232 72.0503107,22.6013552 L68.5503107,24.6907292 C67.2873947,25.4446446 65.7126053,25.4446446 64.4496893,24.6907292 L60.9496893,22.6013552 C59.7405176,21.8795232 59,20.5750309 59,19.1667917 L59,15.4998749 C59,14.0916357 59.7405176,12.7871435 60.9496893,12.0653115 L64.4496893,9.97593751 C65.7126053,9.22202208 67.2873947,9.22202208 68.5503107,9.97593751 Z" id="Polygon-Copy-2"></path>
                <path d="M42.5503107,1.0090074 L45.0503107,2.5014174 C46.2594824,3.22324938 47,4.52774164 47,5.93598083 L47,8.50846361 C47,9.91670281 46.2594824,11.2211951 45.0503107,11.943027 L42.5503107,13.435437 C41.2873947,14.1893525 39.7126053,14.1893525 38.4496893,13.435437 L35.9496893,11.943027 C34.7405176,11.2211951 34,9.91670281 34,8.50846361 L34,5.93598083 C34,4.52774164 34.7405176,3.22324938 35.9496893,2.5014174 L38.4496893,1.0090074 C39.7126053,0.25509197 41.2873947,0.25509197 42.5503107,1.0090074 Z" id="Polygon-Copy-3"></path>
                <path d="M18.0503107,12.0255423 L20.0503107,13.2194703 C21.2594824,13.9413023 22,15.2457946 22,16.6540338 L22,18.6792996 C22,20.0875387 21.2594824,21.392031 20.0503107,22.113863 L18.0503107,23.307791 C16.7873947,24.0617064 15.2126053,24.0617064 13.9496893,23.307791 L11.9496893,22.113863 C10.7405176,21.392031 10,20.0875387 10,18.6792996 L10,16.6540338 C10,15.2457946 10.7405176,13.9413023 11.9496893,13.2194703 L13.9496893,12.0255423 C15.2126053,11.2716269 16.7873947,11.2716269 18.0503107,12.0255423 Z" id="Polygon-Copy-4"></path>
                <path d="M7.05031073,38.0586122 L8.05031073,38.6555762 C9.25948243,39.3774082 10,40.6819005 10,42.0901397 L10,43.0209714 C10,44.4292106 9.25948243,45.7337029 8.05031073,46.4555349 L7.05031073,47.0524989 C5.78739465,47.8064143 4.21260535,47.8064143 2.94968927,47.0524989 L1.94968927,46.4555349 C0.740517569,45.7337029 -4.00563795e-15,44.4292106 -3.55271368e-15,43.0209714 L0,42.0901397 C-1.72459562e-16,40.6819005 0.740517569,39.3774082 1.94968927,38.6555762 L2.94968927,38.0586122 C4.21260535,37.3046968 5.78739465,37.3046968 7.05031073,38.0586122 Z" id="Polygon-Copy-5"></path>
                <path d="M17.5503107,64.0751472 L18.0503107,64.3736292 C19.2594824,65.0954612 20,66.3999534 20,67.8081926 L20,68.1918074 C20,69.6000466 19.2594824,70.9045388 18.0503107,71.6263708 L17.5503107,71.9248528 C16.2873947,72.6787682 14.7126053,72.6787682 13.4496893,71.9248528 L12.9496893,71.6263708 C11.7405176,70.9045388 11,69.6000466 11,68.1918074 L11,67.8081926 C11,66.3999534 11.7405176,65.0954612 12.9496893,64.3736292 L13.4496893,64.0751472 C14.7126053,63.3212318 16.2873947,63.3212318 17.5503107,64.0751472 Z" id="Polygon-Copy-6"></path>
                <path d="M42.25,74.9289424 L42.3554799,74.9919101 C43.3753897,75.6007595 44,76.7010701 44,77.8888889 L44,77.8888889 C44,79.0767077 43.3753897,80.1770183 42.3554799,80.7858677 L42.25,80.8488354 C41.1720643,81.4923242 39.8279357,81.4923242 38.75,80.8488354 L38.6445201,80.7858677 C37.6246103,80.1770183 37,79.0767077 37,77.8888889 L37,77.8888889 C37,76.7010701 37.6246103,75.6007595 38.6445201,74.9919101 L38.75,74.9289424 C39.8279357,74.2854536 41.1720643,74.2854536 42.25,74.9289424 Z" id="Polygon-Copy-7"></path>
            </g>
        </g>
    </g>
</svg>