<svg width="425" height="480" viewBox="0 0 425 480" fill="none" xmlns="http://www.w3.org/2000/svg">
<path d="M408.379 317.226L314.112 262.817V217.183L408.379 162.774C418.061 157.169 424.006 146.865 424.006 135.655C424.006 124.444 418.061 114.14 408.379 108.535L227.657 4.18965C222.845 1.41541 217.41 -1.52588e-05 212.031 -1.52588e-05C206.652 -1.52588e-05 201.217 1.41541 196.405 4.18965L15.6263 108.535C5.9448 114.14 0 124.444 0 135.655C0 146.865 5.9448 157.169 15.6263 162.774L109.894 217.183V262.817L15.6263 317.226C5.9448 322.831 0 333.135 0 344.345C0 355.556 5.9448 365.86 15.6263 371.465L196.348 475.81C201.217 478.585 206.596 480 211.975 480C217.353 480 222.788 478.585 227.601 475.81L408.379 371.408C418.061 365.803 424.006 355.499 424.006 344.289C424.062 333.135 418.061 322.831 408.379 317.226ZM172.512 262.817V217.183L203.822 199.122L212.031 194.367L220.241 199.122L251.55 217.183V262.817L212.031 285.633L172.512 262.817ZM212.031 67.431L330.134 135.598L282.803 162.887L227.657 131.069C217.976 125.464 206.03 125.464 196.348 131.069L141.203 162.887L93.8712 135.598L212.031 67.431ZM212.031 412.512L93.9278 344.345L141.26 317.056L196.405 348.875C201.274 351.649 206.652 353.064 212.031 353.064C217.41 353.064 222.845 351.649 227.657 348.875L282.803 317.056L330.134 344.345L212.031 412.512Z" fill="#072CBA"/>
</svg>
