<?xml version="1.0" encoding="utf-8"?>
<!-- Generator: Adobe Illustrator 21.1.0, SVG Export Plug-In . SVG Version: 6.00 Build 0)  -->
<svg version="1.1" id="Слой_1" xmlns="http://www.w3.org/2000/svg" xmlns:xlink="http://www.w3.org/1999/xlink" x="0px" y="0px"
	 viewBox="0 0 140.4 109.5" style="enable-background:new 0 0 140.4 109.5;" xml:space="preserve">
<style type="text/css">
	.st0{fill:#0043A4;}
</style>
<title>Logo</title>
<desc>Created with Sketch.</desc>
<path id="Combined-Shape" class="st0" d="M69,8.2c0.2-0.1,0.4,0,0.4,0.2v18.2c0,0.1-0.1,0.2-0.1,0.2L56.8,34c-0.1,0-0.2,0-0.3,0
	l-15.8-9.1c-0.2-0.1-0.2-0.4,0-0.5L69,8.2z M39.1,60.7c-0.2,0.1-0.4,0-0.4-0.2V27.9c0-0.2,0.2-0.3,0.4-0.2l15.8,9.1
	c0.1,0,0.1,0.1,0.1,0.2v14.3c0,0.1,0,0.2-0.1,0.2L39.1,60.7z M72.6,8.4c0-0.2,0.2-0.3,0.4-0.2l28.3,16.3c0.2,0.1,0.2,0.4,0,0.5
	L85.4,34c-0.1,0-0.2,0-0.3,0l-12.4-7.2c-0.1,0-0.1-0.1-0.1-0.2V8.4z M40.7,64c-0.2-0.1-0.2-0.4,0-0.5l15.8-9.1c0.1,0,0.2,0,0.3,0
	l12.4,7.2c0.1,0,0.1,0.1,0.1,0.2V80c0,0.2-0.2,0.3-0.4,0.2L40.7,64z M72.6,61.8c0-0.1,0.1-0.2,0.1-0.2l12.4-7.2c0.1,0,0.2,0,0.3,0
	l15.8,9.1c0.2,0.1,0.2,0.4,0,0.5L73,80.3c-0.2,0.1-0.4,0-0.4-0.2V61.8z M71,42.4c-0.1,0-0.2,0-0.2,0l-10.5-6.2
	c-0.2-0.1-0.2-0.3,0-0.4l10.6-6.1c0.1,0,0.2,0,0.2,0l10.6,6.1c0.2,0.1,0.2,0.3,0,0.4L71,42.4z M83.7,51.4c0,0.1,0,0.2-0.1,0.2
	l-10.6,6.1c-0.2,0.1-0.4,0-0.4-0.2V45.3c0-0.1,0-0.2,0.1-0.2L83.3,39c0.2-0.1,0.4,0,0.4,0.2V51.4z M69.4,57.5c0,0.2-0.2,0.3-0.4,0.2
	l-10.6-6.1c-0.1,0-0.1-0.1-0.1-0.2V39.2c0-0.2,0.2-0.3,0.4-0.2l10.6,6.1c0.1,0,0.1,0.1,0.1,0.2V57.5z M86.7,37.1
	c0-0.1,0.1-0.2,0.1-0.2l15.8-9.1c0.2-0.1,0.4,0,0.4,0.2v32.6c0,0.2-0.2,0.3-0.4,0.2l-15.8-9.1c-0.1,0-0.1-0.1-0.1-0.2V37.1z"/>
<path id="Fill-10" class="st0" d="M130.2,93.4c0-0.6,0-3.8,4.4-3.8s4.3,4.3,4.3,5.3c0,0,0,0.1,0.1,0.1h1.4c0,0,0.1,0,0.1-0.1
	c0-5.4-3.3-6.8-5.8-6.8s-5.9,1.1-5.9,5.3c0,3.6,2.8,5,6.3,6.2c1.5,0.5,4,1.6,4,4.3c0,1-0.2,4.2-4.6,4.2s-4.6-4.3-4.6-5.3
	c0,0,0-0.1-0.1-0.1h-1.4c0,0-0.1,0-0.1,0.1c0,5.4,3.6,6.8,6.2,6.8s6.2-1.1,6.2-5.7c0-3-1.6-4.5-5.1-5.8
	C131.8,96.7,130.2,95.9,130.2,93.4L130.2,93.4z M123,88.3C123,88.3,122.9,88.4,123,88.3l-0.1,14.4c0,1-0.2,5.3-4.6,5.3
	c-4.4,0-4.6-4.3-4.6-5.3V88.4c0,0,0-0.1-0.1-0.1h-1.4c0,0-0.1,0-0.1,0.1v14.3c0,5.4,3.6,6.8,6.2,6.8c2.5,0,6.2-1.5,6.2-6.8V88.4
	c0,0,0-0.1-0.1-0.1H123z M98.3,93.4c0-0.6,0-3.8,4.4-3.8s4.3,4.3,4.3,5.3c0,0,0,0.1,0.1,0.1h1.4c0,0,0.1,0,0.1-0.1
	c0-5.4-3.3-6.8-5.8-6.8s-5.9,1.1-5.9,5.3c0,3.6,2.8,5,6.3,6.2c1.5,0.5,4,1.6,4,4.3c0,1-0.2,4.2-4.6,4.2s-4.6-4.3-4.6-5.3
	c0,0,0-0.1-0.1-0.1h-1.4c0,0-0.1,0-0.1,0.1c0,5.4,3.6,6.8,6.2,6.8s6.2-1.1,6.2-5.7c0-3-1.6-4.5-5.1-5.8
	C100,96.7,98.3,95.9,98.3,93.4L98.3,93.4z M91.2,88.3C91.1,88.3,91.1,88.4,91.2,88.3l-0.1,17.9l-9.4-17.8c0-0.1-0.1-0.1-0.2-0.1
	h-1.3c0,0-0.1,0-0.1,0.1v20.9c0,0,0,0.1,0.1,0.1h1.4c0,0,0.1,0,0.1-0.1V91.5l9.4,17.7c0,0.1,0.1,0.1,0.2,0.1h1.4c0,0,0.1,0,0.1-0.1
	V88.4c0,0,0-0.1-0.1-0.1H91.2z M65.3,88.3C65.3,88.3,65.3,88.4,65.3,88.3l-0.1,20.9c0,0,0,0.1,0.1,0.1h10.4c0,0,0.1,0,0.1-0.1v-1.4
	c0,0,0-0.1-0.1-0.1h-8.9v-8.6h8c0,0,0.1,0,0.1-0.1v-1.4c0,0,0-0.1-0.1-0.1h-8v-7.8h8.9c0,0,0.1,0,0.1-0.1v-1.4c0,0,0-0.1-0.1-0.1
	H65.3z M50.9,93.4c0-0.6,0-3.8,4.4-3.8c4.4,0,4.3,4.3,4.3,5.3c0,0,0,0.1,0.1,0.1H61c0,0,0.1,0,0.1-0.1c0-5.4-3.3-6.8-5.8-6.8
	s-5.9,1.1-5.9,5.3c0,3.6,2.8,5,6.3,6.2c1.5,0.5,4,1.6,4,4.3c0,1-0.2,4.2-4.6,4.2c-4.4,0-4.6-4.3-4.6-5.3c0,0,0-0.1-0.1-0.1h-1.4
	c0,0-0.1,0-0.1,0.1c0,5.4,3.6,6.8,6.2,6.8s6.2-1.1,6.2-5.7c0-3-1.6-4.5-5.1-5.8C52.6,96.7,50.9,95.9,50.9,93.4L50.9,93.4z
	 M43.8,88.3C43.8,88.3,43.7,88.4,43.8,88.3l-0.1,17.9l-9.4-17.8c0-0.1-0.1-0.1-0.2-0.1h-1.3c0,0-0.1,0-0.1,0.1v20.9
	c0,0,0,0.1,0.1,0.1h1.4c0,0,0.1,0,0.1-0.1V91.5l9.4,17.7c0,0.1,0.1,0.1,0.2,0.1h1.4c0,0,0.1,0,0.1-0.1V88.4c0,0,0-0.1-0.1-0.1H43.8z
	 M15.7,98.8c0,4.4,0.7,10.8,6.6,10.8c5.9,0,6.6-6.4,6.6-10.8c0-4.4-0.7-10.8-6.6-10.8C16.5,88,15.7,94.4,15.7,98.8L15.7,98.8z
	 M27.4,98.8c0,4.1-0.7,9.2-5.1,9.2s-5.1-5.1-5.1-9.2c0-4.1,0.7-9.2,5.1-9.2S27.4,94.6,27.4,98.8L27.4,98.8z M10.8,102.9
	c0,2.9-1.4,5.1-4.4,5.1c-3.8,0-4.8-5-4.8-9.1c0-8.3,2.4-9.3,4.8-9.3c4.4,0,4.4,5.1,4.4,5.3c0,0,0,0.1,0.1,0.1h1.4c0,0,0.1,0,0.1-0.1
	c0-3.6-2-6.8-6-6.8C0.8,88,0,94,0,98.9c0,4.4,0.9,10.6,6.3,10.6c3.6,0,6-2.5,6-6.6c0,0,0-0.1-0.1-0.1L10.8,102.9
	C10.8,102.8,10.8,102.9,10.8,102.9L10.8,102.9z"/>
</svg>
